<svg width="16" height="17" viewBox="0 0 16 17" fill="none" xmlns="http://www.w3.org/2000/svg">
<path d="M13.5 7.375V4.375" stroke="black" stroke-linecap="round" stroke-linejoin="round"/>
<path d="M15 5.875H12" stroke="black" stroke-linecap="round" stroke-linejoin="round"/>
<path d="M10.5 1.875V3.875" stroke="black" stroke-linecap="round" stroke-linejoin="round"/>
<path d="M11.5 2.875H9.5" stroke="black" stroke-linecap="round" stroke-linejoin="round"/>
<path d="M13.5437 9.91255C12.562 10.1878 11.5248 10.1968 10.5384 9.93869C9.55214 9.68053 8.65232 9.16449 7.9314 8.44357C7.21048 7.72265 6.69445 6.82283 6.43629 5.83652C6.17813 4.85022 6.18715 3.81297 6.46242 2.8313C5.49459 3.10068 4.61422 3.61894 3.90901 4.33444C3.2038 5.04995 2.69837 5.93774 2.44304 6.90938C2.18772 7.88102 2.19142 8.90259 2.45378 9.87236C2.71614 10.8421 3.228 11.7262 3.93838 12.4366C4.64876 13.147 5.53286 13.6588 6.50262 13.9212C7.47238 14.1836 8.49396 14.1873 9.4656 13.9319C10.4372 13.6766 11.325 13.1712 12.0405 12.466C12.756 11.7608 13.2743 10.8804 13.5437 9.91255Z" stroke="black" stroke-linecap="round" stroke-linejoin="round"/>
</svg>
